<?xml version="1.0" standalone="no"?><!DOCTYPE svg PUBLIC "-//W3C//DTD SVG 1.1//EN" "http://www.w3.org/Graphics/SVG/1.1/DTD/svg11.dtd"><svg t="1660350837190" class="icon" viewBox="0 0 1024 1024" version="1.1" xmlns="http://www.w3.org/2000/svg" p-id="3999" xmlns:xlink="http://www.w3.org/1999/xlink" width="200" height="200"><defs><style type="text/css">@font-face { font-family: feedback-iconfont; src: url("//at.alicdn.com/t/font_1031158_u69w8yhxdu.woff2?t=1630033759944") format("woff2"), url("//at.alicdn.com/t/font_1031158_u69w8yhxdu.woff?t=1630033759944") format("woff"), url("//at.alicdn.com/t/font_1031158_u69w8yhxdu.ttf?t=1630033759944") format("truetype"); }
</style></defs><path d="M940.8 224c0-89.6-70.4-160-160-160-44.8 0-89.6 19.2-115.2 51.2C627.2 64 576 32 512 32S396.8 64 358.4 108.8C332.8 76.8 288 57.6 243.2 57.6 153.6 57.6 83.2 128 83.2 217.6v12.8l211.2 544c6.4 121.6 102.4 217.6 217.6 217.6 115.2 0 211.2-96 217.6-211.2l211.2-544v-12.8zM512 115.2c57.6 0 102.4 44.8 102.4 102.4l-76.8 428.8h-51.2L409.6 217.6c0-57.6 44.8-102.4 102.4-102.4z m-268.8 25.6c44.8 0 76.8 38.4 76.8 83.2v12.8l76.8 428.8c-19.2 6.4-38.4 12.8-51.2 25.6L166.4 211.2c6.4-38.4 38.4-70.4 76.8-70.4z m268.8 768c-70.4 0-134.4-57.6-134.4-134.4 0-19.2 51.2-44.8 134.4-44.8s134.4 25.6 134.4 44.8c0 70.4-64 134.4-134.4 134.4z m166.4-224c-12.8-12.8-32-19.2-51.2-25.6L704 230.4v-12.8c0-44.8 32-76.8 76.8-76.8 38.4 0 76.8 32 76.8 70.4l-179.2 473.6z" fill="#4d98db" p-id="4000"></path></svg>